ply
format ascii 1.0
element vertex 177
property double x
property double y
property double z
element face 350
property list uchar int vertex_indices
end_header
153.293 3.01298 93.6387
66.7282 3.11141 93.6408
152.98 47.7767 93.631
66.5549 47.8326 93.6331
153.189 46.3894 93.6312
153.264 46.3894 93.6312
155.71 49.961 71.975
152.097 46.202 66.043
152.435 46.5538 66.5981
64.1919 49.9708 71.9734
67.4421 46.5498 66.576
152.038 49.9614 71.9749
152.091 46.5538 66.598
120.484 4.39352 50.7604
120.646 46.6496 50.5905
113.208 4.41115 55.4505
113.046 46.6194 55.4896
155.745 0.894458 71.975
152.104 4.66696 66.0071
152.303 4.46063 66.3334
64.1696 0.939618 71.9734
67.518 4.44802 66.4181
152.046 0.896282 71.9749
152.101 4.4606 66.3337
103.087 4.40398 54.0421
103.181 46.6273 54.1168
96.2936 28.01 46.6324
96.2912 24.033 46.6325
96.2797 4.37332 46.6327
96.3045 46.6725 46.6322
123.625 4.37364 45.6695
123.629 46.6792 45.7559
155.742 4.48371 71.975
155.713 46.5213 71.975
152.104 4.4593 66.0069
152.097 46.5572 66.0433
64.1712 4.46971 71.9734
64.1903 46.5168 71.9734
67.7915 4.44624 65.9642
67.7918 46.5533 65.9955
151.853 4.30569 91.6298
151.57 4.56006 91.2345
151.857 4.5601 91.2339
68.0262 4.54797 91.4032
68.0293 4.33642 91.7324
68.254 4.54801 91.4027
152.324 46.4026 91.4661
68.026 46.399 91.3767
68.027 46.4708 91.4898
151.853 4.56169 91.6305
151.845 46.4008 91.7523
152.41 4.33408 34.6714
152.404 46.7484 34.612
152.41 4.51306 34.6711
152.406 33.8736 34.63
154.045 4.34503 37.3485
152.57 4.33515 34.9326
154.075 46.7318 37.3485
152.596 46.7465 34.9262
154.077 48.3576 37.3485
154.044 2.69139 37.3485
67.5037 4.32147 34.7635
67.5026 46.744 34.6478
67.503 33.3829 34.6843
67.5037 4.44958 34.7632
67.5029 36.8566 34.6748
65.8716 4.33158 37.3547
67.386 4.3222 34.9504
65.7977 46.7274 37.3546
67.3863 46.7428 34.8325
67.5478 33.383 34.6131
65.7947 48.4227 37.3546
65.8744 2.68631 37.3547
96.1938 4.32717 35.0931
97.7065 4.33644 37.3525
96.0942 4.32656 34.9444
96.2204 46.7413 35.3214
97.5803 46.729 37.3524
95.9141 46.7441 34.8639
96.2206 47.0495 35.3231
96.1938 4.22575 35.0926
97.5753 48.3992 37.3524
97.7114 2.68814 37.3525
123.699 4.33219 35.2965
122.264 4.34018 37.3507
123.949 4.3308 34.9386
123.704 46.7428 35.2887
123.704 47.0076 35.2887
123.699 4.08725 35.2965
122.264 46.7302 37.3507
123.979 46.7453 34.8947
122.264 48.3811 37.3507
122.265 2.68956 37.3507
94.7508 28.9589 34.5372
89.9747 29.5969 33.8033
89.1346 27.6956 34.5143
148.071 28.9668 34.5425
145.646 29.6266 33.7841
146.136 27.6606 34.5192
152.045 4.48314 71.9749
152.039 46.5211 71.9749
67.847 4.47028 71.9735
67.847 46.517 71.9735
152.384 4.34478 37.3486
152.748 4.19601 0.121113
152.408 4.33512 34.9326
152.377 46.7317 37.3486
152.741 46.958 0.144193
152.743 33.4473 0.136901
152.406 33.3975 34.6216
152.384 2.69129 37.3486
152.746 17.6355 0.128367
152.411 17.7068 34.3431
67.5276 4.33184 37.3546
67.1838 4.1828 0.0871553
67.5054 4.32222 34.9503
68.0292 4.54929 91.7311
67.5276 46.7275 37.3545
67.184 46.954 0.110242
67.184 33.4328 0.102944
67.5023 33.383 34.6131
67.5276 2.68641 37.3546
67.1839 17.6571 0.0944284
67.4998 17.7283 34.3353
123.684 4.3404 37.3506
123.952 4.19157 0.109685
123.702 4.33076 34.9386
96.2106 4.33621 37.3526
95.9334 4.18724 0.0985652
96.1927 4.32658 34.9444
123.689 46.7303 37.3506
123.956 46.9567 0.13277
123.707 46.7452 34.8944
123.744 33.4001 29.4445
123.707 28.9632 34.5401
123.713 29.6149 33.7917
123.955 33.4424 0.125475
123.707 33.3926 34.6187
123.689 48.38 37.3506
123.684 2.68964 37.3506
123.953 17.6427 0.116946
123.742 17.704 29.542
123.707 21.9945 34.4164
123.707 17.714 34.3405
123.707 27.6744 34.5172
96.2355 46.7289 37.3525
95.9587 46.9554 0.12166
96.217 46.7441 34.8642
96.1689 33.3954 29.4424
96.2041 28.9591 34.5374
96.199 29.6002 33.8011
70.0894 33.3909 29.4405
149.818 33.4045 29.4464
70.0558 28.9552 34.5348
149.831 28.9671 34.5427
95.9507 33.4377 0.114361
96.2073 33.3879 34.616
96.2365 48.4002 37.3525
96.2097 2.68806 37.3526
95.9414 17.6498 0.105835
96.1606 17.7111 29.5732
96.1991 21.9714 34.4134
96.1961 17.721 34.3379
96.2032 27.6913 34.5149
70.0547 33.3834 34.6134
149.826 33.397 34.6213
70.09 17.7178 29.6027
149.837 17.6974 29.5125
70.0574 21.9495 34.4104
149.839 22.0164 34.4193
70.0583 17.7276 34.3355
149.844 17.7074 34.3429
67.7972 46.5498 66.5761
67.7957 4.44806 66.4179
151.848 46.4025 91.4656
152.401 46.7465 34.926
67.5043 46.7429 34.8326
3 2 3 4
3 8 12 11
3 12 172 11
3 15 16 14
3 173 20 21
3 17 22 23
3 28 27 24
3 30 13 14
3 24 25 16
3 19 34 18
3 8 7 35
3 33 8 6
3 18 32 19
3 17 19 32
3 9 10 37
3 39 21 10
3 36 21 20
3 41 42 40
3 45 41 44
3 46 174 2
3 49 0 40
3 56 51 53
3 55 60 56
3 56 53 55
3 59 57 58
3 64 61 67
3 67 72 66
3 65 69 62
3 69 68 71
3 79 81 77
3 77 74 73
3 73 74 82
3 83 85 88
3 84 83 88
3 84 89 86
3 91 87 86
3 97 96 98
3 17 32 99
3 33 100 99
3 6 11 100
3 11 9 102
3 102 37 36
3 99 101 22
3 5 46 2
3 108 54 109
3 111 112 104
3 18 34 103
3 49 40 42
3 42 174 49
3 114 123 122
3 120 63 65
3 116 48 47
3 117 113 38
3 65 119 120
3 51 56 105
3 51 125 104
3 128 61 114
3 61 115 67
3 126 85 83
3 34 19 23
3 127 28 113
3 38 173 21
3 42 41 99
3 43 45 116
3 141 143 142
3 135 144 134
3 137 133 135
3 87 132 86
3 131 136 133
3 30 31 130
3 176 62 69
3 118 62 146
3 131 132 90
3 58 52 175
3 172 39 10
3 106 31 35
3 8 35 12
3 47 174 100
3 46 50 174
3 133 97 135
3 93 94 150
3 150 94 148
3 161 162 160
3 150 148 156
3 73 80 129
3 129 160 162
3 79 76 147
3 145 29 26
3 119 151 120
3 133 136 152
3 55 103 110
3 55 57 106
3 57 59 106
3 124 139 110
3 124 84 92
3 124 130 89
3 130 138 91
3 81 157 145
3 77 145 127
3 127 158 82
3 127 113 121
3 113 66 72
3 113 117 68
3 117 71 68
3 136 131 107
3 155 119 118
3 125 140 111
3 128 114 122
3 87 90 132
3 79 147 78
3 58 175 59
3 91 138 87
3 157 81 79
3 79 78 157
3 75 129 80
3 60 110 105
3 105 110 85
3 88 139 92
3 80 82 158
3 80 158 75
3 121 72 67
3 166 168 161
3 141 142 169
3 160 159 166
3 140 141 167
3 163 95 93
3 96 154 98
3 95 153 93
3 70 153 120
3 154 109 112
3 116 45 44
3 1 3 116
3 166 170 168
3 151 153 164
3 98 144 135
3 169 171 167
3 165 154 152
3 5 2 4
3 3 1 4
3 1 0 4
3 11 6 8
3 172 10 9
3 11 172 9
3 14 13 15
3 173 23 22
3 20 173 22
3 23 19 17
3 27 26 25
3 24 27 25
3 26 29 25
3 14 31 30
3 16 15 24
3 7 8 33
3 18 7 32
3 7 33 32
3 39 38 21
3 36 37 10
3 21 36 10
3 44 40 1
3 44 41 40
3 40 0 1
3 2 48 3
3 48 174 47
3 2 174 48
3 49 4 0
3 49 50 4
3 55 54 57
3 55 53 54
3 54 52 58
3 54 58 57
3 68 63 66
3 67 66 64
3 66 63 64
3 68 65 63
3 69 65 68
3 77 76 79
3 73 76 77
3 82 80 73
3 88 92 84
3 86 83 84
3 86 89 91
3 99 22 17
3 99 32 33
3 100 33 6
3 100 11 102
3 9 37 102
3 36 101 102
3 101 36 20
3 22 101 20
3 107 52 54
3 108 107 54
3 112 109 53
3 104 112 53
3 104 53 51
3 109 54 53
3 18 103 7
3 103 106 7
3 7 106 35
3 49 174 50
3 42 99 100
3 42 100 174
3 114 64 123
3 114 61 64
3 63 120 123
3 64 63 123
3 43 47 101
3 43 116 47
3 47 102 101
3 38 39 117
3 65 118 119
3 65 62 118
3 51 105 85
3 125 51 85
3 125 85 126
3 128 75 61
3 128 129 75
3 75 115 61
3 28 24 38
3 113 28 38
3 24 15 173
3 15 13 23
3 13 30 34
3 30 103 34
3 30 124 103
3 13 34 23
3 15 23 173
3 24 173 38
3 41 45 101
3 99 41 101
3 45 43 101
3 135 134 137
3 132 133 137
3 132 131 133
3 132 137 86
3 137 134 86
3 83 144 142
3 83 142 143
3 83 143 126
3 134 144 83
3 141 125 126
3 140 125 141
3 141 126 143
3 134 83 86
3 130 124 30
3 62 176 78
3 146 62 78
3 146 78 147
3 107 131 52
3 131 90 52
3 90 175 52
3 106 130 31
3 14 12 35
3 31 14 35
3 16 12 14
3 25 39 172
3 29 39 25
3 117 39 29
3 117 29 145
3 25 172 16
3 172 12 16
3 100 102 47
3 46 4 50
3 46 5 4
3 152 154 96
3 133 152 97
3 152 96 97
3 150 149 93
3 94 153 151
3 148 94 151
3 93 153 94
3 156 149 150
3 160 128 159
3 160 129 128
3 161 73 162
3 162 73 129
3 163 73 161
3 149 73 163
3 76 73 149
3 76 149 156
3 147 156 148
3 146 148 155
3 147 148 146
3 76 156 147
3 127 145 27
3 27 145 26
3 127 27 28
3 120 151 70
3 151 155 148
3 151 164 70
3 119 155 151
3 136 108 152
3 108 109 152
3 152 109 165
3 110 60 55
3 106 103 55
3 106 138 130
3 106 59 138
3 110 103 124
3 92 139 124
3 89 84 124
3 91 89 130
3 145 77 81
3 127 74 77
3 82 74 127
3 121 158 127
3 72 121 113
3 68 66 113
3 117 145 157
3 71 117 157
3 107 108 136
3 118 146 155
3 111 104 125
3 122 159 128
3 175 90 138
3 59 175 138
3 90 87 138
3 157 176 71
3 157 78 176
3 176 69 71
3 105 56 60
3 85 139 88
3 85 110 139
3 75 121 115
3 75 158 121
3 67 115 121
3 161 160 166
3 169 167 141
3 159 122 166
3 122 123 166
3 166 123 170
3 167 171 112
3 111 167 112
3 111 140 167
3 93 149 163
3 154 169 98
3 169 142 98
3 98 142 144
3 95 161 168
3 95 163 161
3 153 95 168
3 120 153 123
3 70 164 153
3 153 168 123
3 168 170 123
3 154 165 109
3 112 169 154
3 171 169 112
3 44 1 116
3 3 48 116
3 135 97 98
