ply
format ascii 1.0
element vertex 10
property double x
property double y
property double z
element face 16
property list uchar int vertex_indices
end_header
-419.78 -341.835 49.8053
-414.632 -336.741 45.0281
-383.566 -377.17 49.6537
-378.424 -371.96 44.8257
-425.19 -347.599 44.9533
-425.016 -347.769 36.5711
-414.45 -336.917 36.2849
-378.395 -371.989 36.741
-389.065 -382.813 44.817
-389.036 -382.841 37.0278
3 1 0 2
3 4 1 5
3 2 8 3
3 0 4 8
3 4 5 9
3 7 6 1
3 7 9 5
3 2 3 1
3 5 1 6
3 4 0 1
3 3 9 7
3 3 8 9
3 8 2 0
3 9 8 4
3 1 3 7
3 5 6 7
