ply
format ascii 1.0
element vertex 52
property double x
property double y
property double z
element face 100
property list uchar int vertex_indices
end_header
54.495 -19.5923 -27.9845
54.4947 -19.6396 -26.3196
54.5243 -17.3065 -28.2043
54.4657 -21.7449 -35.8563
54.5666 -13.8974 -35.7117
54.4657 -21.8387 -30.183
54.4656 -21.9025 -26.3263
54.5632 -14.2484 -30.2052
54.524 -17.2972 -30.1963
54.5243 -17.307 -28.103
57.7863 -16.773 -30.1651
60.1229 -16.0726 -30.1438
56.466 -16.8233 -30.1782
56.5494 -16.748 -28.1182
60.1155 -16.6842 -30.142
60.0694 -16.6144 -28.1012
56.4885 -18.373 -28.0343
56.5556 -18.4094 -26.2783
57.9883 -18.4326 -28.021
58.0489 -18.469 -26.251
56.4412 -19.6314 -27.9692
56.5051 -19.6806 -26.2827
56.5302 -17.2331 -28.1193
56.0301 -22.2961 -35.8022
56.0521 -21.7494 -35.7915
58.1708 -22.2967 -35.7146
58.2904 -21.7559 -35.7
59.9639 -13.7687 -35.4885
60.0199 -17.1135 -26.211
60.1807 -21.7613 -35.6227
57.3752 -13.8305 -35.5955
60.2735 -13.7614 -35.4757
56.2465 -22.3891 -30.1634
56.3951 -22.453 -26.2923
56.2681 -21.843 -30.1649
56.4168 -21.9074 -26.2904
56.4501 -17.2264 -30.1772
56.5312 -17.2332 -28.0932
60.0629 -17.1032 -28.0759
58.0785 -22.3887 -30.145
58.0141 -22.4529 -26.2625
58.1983 -21.8475 -30.1455
58.1339 -21.9117 -26.2588
60.2502 -13.8243 -34.4981
60.2007 -16.1546 -33.5654
60.0531 -21.8519 -30.1269
59.9625 -21.9162 -26.2252
57.5789 -14.1705 -30.1752
60.1106 -17.0918 -30.1408
57.8867 -17.1833 -28.0865
57.9471 -17.1897 -26.2493
60.1467 -14.1041 -30.1496
3 1 0 6
3 8 3 5
3 15 14 10
3 18 16 17
3 0 1 21
3 25 23 24
3 27 29 26
3 34 32 33
3 34 24 23
3 17 16 20
3 22 12 36
3 39 41 42
3 39 25 26
3 39 32 23
3 39 40 33
3 24 34 5
3 45 41 26
3 35 6 5
3 45 46 42
3 50 49 18
3 43 31 27
3 7 47 30
3 27 30 43
3 43 51 11
3 31 43 44
3 14 15 38
3 45 38 46
3 38 49 50
3 8 2 22
3 22 2 9
3 14 11 10
3 12 8 36
3 38 15 49
3 37 16 18
3 37 9 16
3 46 19 42
3 35 33 40
3 1 6 35
3 0 9 2
3 6 0 5
3 0 2 8
3 0 8 5
3 8 7 4
3 3 8 4
3 13 10 12
3 13 15 10
3 17 19 18
3 21 20 0
3 24 26 25
3 30 27 26
3 27 31 29
3 24 30 26
3 4 30 24
3 4 24 3
3 33 35 34
3 23 32 34
3 20 21 17
3 22 13 12
3 22 37 13
3 42 40 39
3 26 41 39
3 23 25 39
3 33 32 39
3 5 3 24
3 26 29 45
3 5 34 35
3 42 41 45
3 18 19 50
3 30 4 7
3 43 47 51
3 43 30 47
3 11 44 43
3 44 14 48
3 29 44 45
3 29 31 44
3 44 11 14
3 44 48 45
3 38 48 14
3 46 38 28
3 45 48 38
3 50 28 38
3 22 36 8
3 9 37 22
3 11 51 47
3 10 11 47
3 12 47 7
3 12 10 47
3 8 12 7
3 49 13 37
3 49 15 13
3 18 49 37
3 16 0 20
3 16 9 0
3 19 28 50
3 19 21 42
3 46 28 19
3 17 21 19
3 21 35 42
3 40 42 35
3 35 21 1
