ply
format ascii 1.0
element vertex 66
property double x
property double y
property double z
element face 128
property list uchar int vertex_indices
end_header
32.2707 -13.4946 -34.3326
41.2917 -20.8034 -26.9858
41.1409 -15.1853 -35.2687
32.3456 -20.4181 -35.356
34.6468 -19.3605 -35.3219
41.1772 -16.3592 -35.225
36.1795 -15.9101 -25.5715
32.6552 -13.4843 -35.113
36.468 -13.4818 -35.4777
37.9854 -15.6949 -25.591
32.3195 -13.5176 -32.6466
41.3476 -22.5317 -27.8124
38.0462 -18.1131 -25.5798
36.2488 -15.9228 -26.9789
38.009 -15.7129 -26.9902
38.0697 -18.1257 -26.9793
32.2337 -13.4772 -35.6113
34.5563 -18.1544 -25.544
41.0885 -13.4868 -35.332
32.3838 -22.7838 -35.269
34.5379 -18.1677 -26.9584
41.3709 -22.6358 -34.9911
41.1991 -17.0703 -35.1985
41.2726 -19.4527 -35.1097
32.484 -13.5952 -26.9676
39.371 -15.5298 -25.6059
41.0821 -13.5236 -32.6383
36.6998 -13.5976 -26.9924
37.9826 -13.5759 -28.645
41.0688 -13.6001 -27.0181
39.3579 -15.5521 -26.9989
34.4954 -13.5963 -26.9794
34.5141 -13.6156 -25.5658
37.9558 -13.5983 -26.9998
37.9331 -13.6174 -25.6006
32.6217 -22.6586 -26.9262
32.6623 -22.6372 -25.5028
32.5538 -18.1912 -26.9466
32.5945 -18.1776 -25.5239
41.088 -14.2219 -27.0153
37.9603 -13.7769 -26.999
41.3449 -22.5196 -26.9781
38.0699 -19.0556 -25.5754
41.1777 -17.1211 -27.0023
41.1741 -17.1297 -25.6164
41.2407 -19.1553 -26.9932
41.2353 -19.1045 -25.6074
41.1227 -15.3417 -27.0103
41.1182 -15.3216 -25.6247
39.637 -22.5468 -26.968
38.0944 -19.1072 -26.9749
34.5794 -22.6274 -26.9378
34.5977 -22.6065 -25.5226
38.1815 -22.57 -26.9593
38.1577 -22.55 -25.5592
39.4216 -17.1477 -26.9919
39.4359 -17.1561 -25.5986
34.5291 -17.2218 -26.9627
34.5477 -17.2303 -25.5485
38.0456 -17.1685 -26.9837
36.2639 -17.1955 -26.9731
38.0226 -17.1775 -25.5841
36.1948 -17.2053 -25.5654
39.5006 -19.1287 -26.9831
39.5126 -19.0779 -25.59
34.5642 -19.0015 -25.5399
3 8 18 2
3 22 23 4
3 2 5 8
3 23 21 4
3 16 0 7
3 28 33 29
3 27 33 28
3 0 8 7
3 33 27 34
3 10 37 24
3 35 36 38
3 1 41 11
3 11 45 1
3 45 43 44
3 45 23 22
3 47 48 44
3 26 29 39
3 39 47 26
3 51 53 54
3 35 51 52
3 41 49 11
3 59 60 62
3 46 64 63
3 56 55 63
3 56 25 30
3 57 58 32
3 20 17 58
3 41 1 49
3 63 50 53
3 50 63 15
3 55 30 14
3 30 40 14
3 39 29 33
3 59 14 13
3 20 57 37
3 50 42 54
3 50 15 12
3 15 59 61
3 9 14 40
3 13 6 62
3 17 20 37
3 48 47 30
3 6 13 14
3 44 56 64
3 48 25 56
3 42 65 52
3 42 12 17
3 12 61 62
3 62 6 58
3 52 65 36
3 4 5 22
3 8 4 16
3 8 5 4
3 4 3 16
3 4 19 3
3 4 21 19
3 7 8 16
3 29 26 28
3 27 28 31
3 26 18 8
3 26 8 28
3 10 8 0
3 28 8 10
3 28 10 31
3 10 24 31
3 27 31 32
3 34 27 32
3 0 16 3
3 10 0 3
3 10 3 37
3 3 19 35
3 3 35 37
3 38 37 35
3 11 23 45
3 11 21 23
3 44 46 45
3 22 43 45
3 44 43 47
3 26 43 22
3 26 47 43
3 26 22 5
3 26 2 18
3 26 5 2
3 54 52 51
3 52 36 35
3 11 53 21
3 11 49 53
3 53 51 19
3 51 35 19
3 53 19 21
3 62 61 59
3 63 45 46
3 63 64 56
3 30 55 56
3 32 31 57
3 58 57 20
3 1 45 63
3 49 1 63
3 53 49 63
3 15 55 59
3 15 63 55
3 14 59 55
3 30 47 39
3 40 30 39
3 33 40 39
3 13 60 59
3 57 31 24
3 37 57 24
3 54 53 50
3 12 42 50
3 61 12 15
3 34 40 33
3 34 9 40
3 62 60 13
3 37 38 17
3 30 25 48
3 14 9 6
3 64 46 44
3 56 44 48
3 52 54 42
3 17 65 42
3 17 62 58
3 17 12 62
3 6 9 34
3 58 6 32
3 6 34 32
3 65 17 38
3 36 65 38
