ply
format ascii 1.0
element vertex 31
property double x
property double y
property double z
element face 58
property list uchar int vertex_indices
end_header
-444.253 -382.914 44.412
-399.946 -425.741 44.3623
-436.164 -374.457 51.2661
-391.731 -417.293 51.2639
-419.758 -341.823 49.8009
-414.626 -336.744 45.0292
-383.559 -377.157 49.6459
-378.432 -371.964 44.8224
-444.19 -382.975 36.7406
-399.946 -425.741 36.7325
-388.372 -382.176 36.4496
-426.936 -365.179 36.5607
-427.461 -365.59 44.6004
-416.828 -354.753 36.4553
-425.192 -347.604 44.979
-417.329 -355.27 36.4605
-425.02 -347.772 36.4616
-414.45 -336.915 36.3516
-427.395 -365.653 36.5655
-372.477 -397.493 36.4465
-390.14 -383.981 36.468
-389.07 -382.82 44.8435
-398.58 -392.593 36.5555
-389.036 -382.853 36.4565
-378.397 -371.998 36.3462
-386.149 -387.894 36.4675
-384.825 -389.438 37.934
-383.048 -408.364 44.5816
-384.411 -385.993 36.4488
-374.371 -399.441 36.4662
-374.5 -399.573 38.0034
3 0 1 3
3 6 4 5
3 0 8 9
3 2 8 0
3 18 12 11
3 4 14 5
3 21 10 23
3 21 14 4
3 23 15 21
3 5 17 24
3 30 29 19
3 9 3 1
3 25 28 19
3 28 23 10
3 13 16 15
3 20 15 23
3 22 18 11
3 26 30 19
3 26 27 30
3 12 2 3
3 3 2 0
3 5 7 6
3 9 1 0
3 2 18 8
3 2 12 18
3 11 12 15
3 12 13 15
3 5 16 17
3 5 14 16
3 6 7 10
3 21 6 10
3 7 24 10
3 4 6 21
3 15 16 14
3 21 15 14
3 24 7 5
3 29 30 27
3 9 29 27
3 9 27 3
3 19 29 25
3 25 20 23
3 28 25 23
3 13 24 17
3 13 10 24
3 16 13 17
3 20 22 11
3 15 20 11
3 22 9 8
3 22 20 25
3 22 25 29
3 22 29 9
3 18 22 8
3 19 28 26
3 26 10 12
3 26 28 10
3 12 10 13
3 27 26 12
3 3 27 12
